{
	"asset":{
		"generator":"Khronos glTF Blender I/O v4.0.44",
		"version":"2.0"
	},
	"extensionsUsed":[
		"KHR_materials_emissive_strength"
	],
	"scene":0,
	"scenes":[
		{
			"name":"Scene",
			"nodes":[
				0
			]
		}
	],
	"nodes":[
		{
			"mesh":0,
			"name":"Fighter_01_Griffin",
			"translation":[
				-2.699601282074582e-06,
				0.13666202127933502,
				0.00813229288905859
			]
		}
	],
	"materials":[
		{
			"doubleSided":true,
			"name":"Body",
			"normalTexture":{
				"index":0
			},
			"pbrMetallicRoughness":{
				"baseColorTexture":{
					"index":1
				},
				"metallicRoughnessTexture":{
					"index":2
				}
			}
		},
		{
			"doubleSided":true,
			"emissiveFactor":[
				1,
				1,
				1
			],
			"emissiveTexture":{
				"index":3
			},
			"extensions":{
				"KHR_materials_emissive_strength":{
					"emissiveStrength":15
				}
			},
			"name":"Rear",
			"normalTexture":{
				"index":4
			},
			"pbrMetallicRoughness":{
				"baseColorTexture":{
					"index":5
				},
				"metallicRoughnessTexture":{
					"index":6
				}
			}
		},
		{
			"doubleSided":true,
			"emissiveFactor":[
				1,
				1,
				1
			],
			"emissiveTexture":{
				"index":7
			},
			"extensions":{
				"KHR_materials_emissive_strength":{
					"emissiveStrength":15
				}
			},
			"name":"Front",
			"normalTexture":{
				"index":8
			},
			"pbrMetallicRoughness":{
				"baseColorTexture":{
					"index":9
				},
				"metallicRoughnessTexture":{
					"index":10
				}
			}
		},
		{
			"doubleSided":true,
			"name":"Windows",
			"normalTexture":{
				"index":11
			},
			"pbrMetallicRoughness":{
				"baseColorTexture":{
					"index":12
				},
				"metallicRoughnessTexture":{
					"index":13
				}
			}
		}
	],
	"meshes":[
		{
			"name":"Cube.001",
			"primitives":[
				{
					"attributes":{
						"POSITION":0,
						"NORMAL":1,
						"TEXCOORD_0":2
					},
					"indices":3,
					"material":0
				},
				{
					"attributes":{
						"POSITION":4,
						"NORMAL":5,
						"TEXCOORD_0":6
					},
					"indices":7,
					"material":1
				},
				{
					"attributes":{
						"POSITION":8,
						"NORMAL":9,
						"TEXCOORD_0":10
					},
					"indices":11,
					"material":2
				},
				{
					"attributes":{
						"POSITION":12,
						"NORMAL":13,
						"TEXCOORD_0":14
					},
					"indices":15,
					"material":3
				}
			]
		}
	],
	"textures":[
		{
			"sampler":0,
			"source":0
		},
		{
			"sampler":0,
			"source":1
		},
		{
			"sampler":0,
			"source":2
		},
		{
			"sampler":0,
			"source":3
		},
		{
			"sampler":0,
			"source":4
		},
		{
			"sampler":0,
			"source":5
		},
		{
			"sampler":0,
			"source":6
		},
		{
			"sampler":0,
			"source":7
		},
		{
			"sampler":0,
			"source":8
		},
		{
			"sampler":0,
			"source":9
		},
		{
			"sampler":0,
			"source":10
		},
		{
			"sampler":0,
			"source":11
		},
		{
			"sampler":0,
			"source":12
		},
		{
			"sampler":0,
			"source":13
		}
	],
	"images":[
		{
			"mimeType":"image/png",
			"name":"Fighter_01_Body_Normal",
			"uri":"Fighter_01_Body_Normal.png"
		},
		{
			"mimeType":"image/png",
			"name":"Fighter_01_Body_BaseColor",
			"uri":"Fighter_01_Body_BaseColor.png"
		},
		{
			"mimeType":"image/png",
			"name":"Fighter_01_Body_Metallic.png-Fighter_01_Body_Roughness.png",
			"uri":"Fighter_01_Body_Metallic_png-Fighter_01_Body_Roughness_png.png"
		},
		{
			"mimeType":"image/png",
			"name":"Fighter_01_Rear_Emissive",
			"uri":"Fighter_01_Rear_Emissive.png"
		},
		{
			"mimeType":"image/png",
			"name":"Fighter_01_Rear_Normal",
			"uri":"Fighter_01_Rear_Normal.png"
		},
		{
			"mimeType":"image/png",
			"name":"Fighter_01_Rear_BaseColor",
			"uri":"Fighter_01_Rear_BaseColor.png"
		},
		{
			"mimeType":"image/png",
			"name":"Fighter_01_Rear_Metallic.png-Fighter_01_Rear_Roughness.png",
			"uri":"Fighter_01_Rear_Metallic_png-Fighter_01_Rear_Roughness_png.png"
		},
		{
			"mimeType":"image/png",
			"name":"Fighter_01_Front_Emissive",
			"uri":"Fighter_01_Front_Emissive.png"
		},
		{
			"mimeType":"image/png",
			"name":"Fighter_01_Front_Normal",
			"uri":"Fighter_01_Front_Normal.png"
		},
		{
			"mimeType":"image/png",
			"name":"Fighter_01_Front_BaseColor",
			"uri":"Fighter_01_Front_BaseColor.png"
		},
		{
			"mimeType":"image/png",
			"name":"Fighter_01_Front_Metallic.png-Fighter_01_Front_Roughness.png",
			"uri":"Fighter_01_Front_Metallic_png-Fighter_01_Front_Roughness_png.png"
		},
		{
			"mimeType":"image/png",
			"name":"Fighter_01_Windows_Normal",
			"uri":"Fighter_01_Windows_Normal.png"
		},
		{
			"mimeType":"image/png",
			"name":"Fighter_01_Windows_BaseColor",
			"uri":"Fighter_01_Windows_BaseColor.png"
		},
		{
			"mimeType":"image/png",
			"name":"Fighter_01_Windows_Metallic.png-Fighter_01_Windows_Roughness.png",
			"uri":"Fighter_01_Windows_Metallic_png-Fighter_01_Windows_Roughness_png.png"
		}
	],
	"accessors":[
		{
			"bufferView":0,
			"componentType":5126,
			"count":4373,
			"max":[
				6.5240278244018555,
				1.4117075204849243,
				6.430531024932861
			],
			"min":[
				-6.517500877380371,
				-1.0865025520324707,
				-4.9147443771362305
			],
			"type":"VEC3"
		},
		{
			"bufferView":1,
			"componentType":5126,
			"count":4373,
			"type":"VEC3"
		},
		{
			"bufferView":2,
			"componentType":5126,
			"count":4373,
			"type":"VEC2"
		},
		{
			"bufferView":3,
			"componentType":5123,
			"count":8748,
			"type":"SCALAR"
		},
		{
			"bufferView":4,
			"componentType":5126,
			"count":80,
			"max":[
				3.7661960124969482,
				0.39185523986816406,
				-0.7396535277366638
			],
			"min":[
				-3.749011754989624,
				-1.021514654159546,
				-4.755162715911865
			],
			"type":"VEC3"
		},
		{
			"bufferView":5,
			"componentType":5126,
			"count":80,
			"type":"VEC3"
		},
		{
			"bufferView":6,
			"componentType":5126,
			"count":80,
			"type":"VEC2"
		},
		{
			"bufferView":7,
			"componentType":5123,
			"count":132,
			"type":"SCALAR"
		},
		{
			"bufferView":8,
			"componentType":5126,
			"count":98,
			"max":[
				3.781921625137329,
				0.2976072430610657,
				3.114140510559082
			],
			"min":[
				-3.800961971282959,
				-1.0610138177871704,
				-1.993009328842163
			],
			"type":"VEC3"
		},
		{
			"bufferView":9,
			"componentType":5126,
			"count":98,
			"type":"VEC3"
		},
		{
			"bufferView":10,
			"componentType":5126,
			"count":98,
			"type":"VEC2"
		},
		{
			"bufferView":11,
			"componentType":5123,
			"count":204,
			"type":"SCALAR"
		},
		{
			"bufferView":12,
			"componentType":5126,
			"count":32,
			"max":[
				1.1765003204345703,
				1.2568837404251099,
				-1.3635101318359375
			],
			"min":[
				-1.1018223762512207,
				0.8739919066429138,
				-3.2190616130828857
			],
			"type":"VEC3"
		},
		{
			"bufferView":13,
			"componentType":5126,
			"count":32,
			"type":"VEC3"
		},
		{
			"bufferView":14,
			"componentType":5126,
			"count":32,
			"type":"VEC2"
		},
		{
			"bufferView":15,
			"componentType":5123,
			"count":72,
			"type":"SCALAR"
		}
	],
	"bufferViews":[
		{
			"buffer":0,
			"byteLength":52476,
			"byteOffset":0,
			"target":34962
		},
		{
			"buffer":0,
			"byteLength":52476,
			"byteOffset":52476,
			"target":34962
		},
		{
			"buffer":0,
			"byteLength":34984,
			"byteOffset":104952,
			"target":34962
		},
		{
			"buffer":0,
			"byteLength":17496,
			"byteOffset":139936,
			"target":34963
		},
		{
			"buffer":0,
			"byteLength":960,
			"byteOffset":157432,
			"target":34962
		},
		{
			"buffer":0,
			"byteLength":960,
			"byteOffset":158392,
			"target":34962
		},
		{
			"buffer":0,
			"byteLength":640,
			"byteOffset":159352,
			"target":34962
		},
		{
			"buffer":0,
			"byteLength":264,
			"byteOffset":159992,
			"target":34963
		},
		{
			"buffer":0,
			"byteLength":1176,
			"byteOffset":160256,
			"target":34962
		},
		{
			"buffer":0,
			"byteLength":1176,
			"byteOffset":161432,
			"target":34962
		},
		{
			"buffer":0,
			"byteLength":784,
			"byteOffset":162608,
			"target":34962
		},
		{
			"buffer":0,
			"byteLength":408,
			"byteOffset":163392,
			"target":34963
		},
		{
			"buffer":0,
			"byteLength":384,
			"byteOffset":163800,
			"target":34962
		},
		{
			"buffer":0,
			"byteLength":384,
			"byteOffset":164184,
			"target":34962
		},
		{
			"buffer":0,
			"byteLength":256,
			"byteOffset":164568,
			"target":34962
		},
		{
			"buffer":0,
			"byteLength":144,
			"byteOffset":164824,
			"target":34963
		}
	],
	"samplers":[
		{
			"magFilter":9729,
			"minFilter":9987
		}
	],
	"buffers":[
		{
			"byteLength":164968,
			"uri":"Fighter_01.bin"
		}
	]
}
