{
	"asset":{
		"generator":"Khronos glTF Blender I/O v4.0.44",
		"version":"2.0"
	},
	"extensionsUsed":[
		"KHR_materials_specular",
		"KHR_materials_ior"
	],
	"scene":0,
	"scenes":[
		{
			"name":"Scene",
			"nodes":[
				0
			]
		}
	],
	"nodes":[
		{
			"mesh":0,
			"name":"Cube_cell.027_cell",
			"rotation":[
				0,
				0,
				0.033666037023067474,
				0.999433159828186
			],
			"translation":[
				3.5033631324768066,
				0.22241204977035522,
				2.2810235023498535
			]
		}
	],
	"materials":[
		{
			"doubleSided":true,
			"extensions":{
				"KHR_materials_specular":{
					"specularColorFactor":[
						1.0909091234207153,
						1.0909091234207153,
						1.0909091234207153
					],
					"specularColorTexture":{
						"index":0
					}
				},
				"KHR_materials_ior":{
					"ior":1.4500000476837158
				}
			},
			"name":"Material",
			"pbrMetallicRoughness":{
				"baseColorTexture":{
					"index":1
				},
				"metallicFactor":0.8772727847099304,
				"roughnessFactor":0.8681817650794983
			}
		}
	],
	"meshes":[
		{
			"name":"Cube_cell.027_cell.002",
			"primitives":[
				{
					"attributes":{
						"POSITION":0,
						"NORMAL":1,
						"TEXCOORD_0":2
					},
					"indices":3,
					"material":0
				}
			]
		}
	],
	"textures":[
		{
			"sampler":0,
			"source":0
		},
		{
			"sampler":1,
			"source":1
		}
	],
	"images":[
		{
			"mimeType":"image/jpeg",
			"name":"everytexture.com-stock-paper-texture-00024",
			"uri":"everytexture_com-stock-paper-texture-00024.jpg"
		},
		{
			"mimeType":"image/png",
			"name":"pixil-frame-0",
			"uri":"pixil-frame-0.png"
		}
	],
	"accessors":[
		{
			"bufferView":0,
			"componentType":5126,
			"count":2994,
			"max":[
				4.192190170288086,
				1.4071319103240967,
				10.89226245880127
			],
			"min":[
				-12.174408912658691,
				-1.6295124292373657,
				-6.081568717956543
			],
			"type":"VEC3"
		},
		{
			"bufferView":1,
			"componentType":5126,
			"count":2994,
			"type":"VEC3"
		},
		{
			"bufferView":2,
			"componentType":5126,
			"count":2994,
			"type":"VEC2"
		},
		{
			"bufferView":3,
			"componentType":5123,
			"count":5220,
			"type":"SCALAR"
		}
	],
	"bufferViews":[
		{
			"buffer":0,
			"byteLength":35928,
			"byteOffset":0,
			"target":34962
		},
		{
			"buffer":0,
			"byteLength":35928,
			"byteOffset":35928,
			"target":34962
		},
		{
			"buffer":0,
			"byteLength":23952,
			"byteOffset":71856,
			"target":34962
		},
		{
			"buffer":0,
			"byteLength":10440,
			"byteOffset":95808,
			"target":34963
		}
	],
	"samplers":[
		{
			"magFilter":9729,
			"minFilter":9987
		},
		{
			"magFilter":9728,
			"minFilter":9984
		}
	],
	"buffers":[
		{
			"byteLength":106248,
			"uri":"SpaceshipDestroyed.bin"
		}
	]
}
