{
	"asset":{
		"generator":"Khronos glTF Blender I/O v4.0.44",
		"version":"2.0"
	},
	"extensionsUsed":[
		"KHR_materials_specular",
		"KHR_materials_ior"
	],
	"scene":0,
	"scenes":[
		{
			"name":"Scene",
			"nodes":[
				0
			]
		}
	],
	"nodes":[
		{
			"mesh":0,
			"name":"Cube"
		}
	],
	"materials":[
		{
			"doubleSided":true,
			"extensions":{
				"KHR_materials_specular":{
					"specularColorFactor":[
						1.0909091234207153,
						1.0909091234207153,
						1.0909091234207153
					]
				},
				"KHR_materials_ior":{
					"ior":1
				}
			},
			"name":"Material",
			"pbrMetallicRoughness":{
				"baseColorTexture":{
					"index":0
				},
				"metallicFactor":0.7590909004211426,
				"roughnessFactor":0.27727243304252625
			}
		}
	],
	"meshes":[
		{
			"name":"Cube",
			"primitives":[
				{
					"attributes":{
						"POSITION":0,
						"NORMAL":1,
						"TEXCOORD_0":2
					},
					"indices":3,
					"material":0
				}
			]
		}
	],
	"textures":[
		{
			"sampler":0,
			"source":0
		}
	],
	"images":[
		{
			"mimeType":"image/png",
			"name":"pixil-frame-0",
			"uri":"pixil-frame-0.png"
		}
	],
	"accessors":[
		{
			"bufferView":0,
			"componentType":5126,
			"count":2101,
			"max":[
				7.300477981567383,
				1.6295441389083862,
				12.629892349243164
			],
			"min":[
				-7.300477981567383,
				-1.2051197290420532,
				-2.7986512184143066
			],
			"type":"VEC3"
		},
		{
			"bufferView":1,
			"componentType":5126,
			"count":2101,
			"type":"VEC3"
		},
		{
			"bufferView":2,
			"componentType":5126,
			"count":2101,
			"type":"VEC2"
		},
		{
			"bufferView":3,
			"componentType":5123,
			"count":3444,
			"type":"SCALAR"
		}
	],
	"bufferViews":[
		{
			"buffer":0,
			"byteLength":25212,
			"byteOffset":0,
			"target":34962
		},
		{
			"buffer":0,
			"byteLength":25212,
			"byteOffset":25212,
			"target":34962
		},
		{
			"buffer":0,
			"byteLength":16808,
			"byteOffset":50424,
			"target":34962
		},
		{
			"buffer":0,
			"byteLength":6888,
			"byteOffset":67232,
			"target":34963
		}
	],
	"samplers":[
		{
			"magFilter":9728,
			"minFilter":9984
		}
	],
	"buffers":[
		{
			"byteLength":74120,
			"uri":"Spaceship.bin"
		}
	]
}
